<svg xmlns="http://www.w3.org/2000/svg" width="838px" height="338px" viewBox="0 0 838 338" xmlns:xlink="http://www.w3.org/1999/xlink" style="overflow: hidden; display: block; width: 838px; height: 338px;"><clipPath id="ygc141_0"><rect height="287.7" width="787.5" y="25" x="25"/></clipPath><g clip-path="url(#ygc141_0)"><g style="pointer-events:visiblePainted" transform="matrix(2.1 0 0 2.1 407.2 88)" image-rendering="auto" shape-rendering="auto"><g><path fill="none" stroke="rgb(0,0,0)" d="M -86,38.5 L -40,38.5" stroke-opacity="1" stroke-width="1" stroke-linecap="butt" stroke-linejoin="miter" stroke-miterlimit="10"/></g><g><path fill="none" stroke="rgb(0,0,0)" d="M 97,38.5 L 51,38.5" stroke-opacity="1" stroke-width="1" stroke-linecap="butt" stroke-linejoin="miter" stroke-miterlimit="10"/></g><g transform="translate(-177 -1)"><path d="M 0,10 Q 0,0 10,0 L 81,0 Q 91,0 91,10 L 91,23.21875 L 0,23.21875 Z" fill="rgb(0,179,42)" fill-opacity="1"/><path d="M 91,23.21875 L 91,69 Q 91,79 81,79 L 10,79 Q 0,79 0,69 L 0,23.21875 Z" fill="rgb(232,238,247)" fill-opacity="1"/><path d="M 0,10 Q 0,0 10,0 L 81,0 Q 91,0 91,10 L 91,69 Q 91,79 81,79 L 10,79 Q 0,79 0,69 Z M 0,23.21875 L 91,23.21875" fill="none" stroke="rgb(0,0,0)" stroke-opacity="1" stroke-width="1" stroke-linecap="butt" stroke-linejoin="miter" stroke-miterlimit="10"/><g transform="translate(0 5)"><text font-family="'Arial'" font-size="12px" font-style="normal" font-weight="normal" text-decoration="none" text-anchor="middle" fill="rgb(0,0,0)" fill-opacity="1" transform="translate(45.5 0)"><tspan dy="0.9010416666666666em" x="0">Kunde</tspan></text></g><g transform="translate(5 25.21875)"><text font-family="'Arial'" font-size="12px" font-style="normal" font-weight="normal" text-decoration="none" text-anchor="start" fill="rgb(0,0,0)" fill-opacity="1" transform="translate(0 1.390625)"><tspan dy="0.9010416666666666em" x="0">id</tspan></text></g><g transform="translate(5 41.21875)"><text font-family="'Arial'" font-size="12px" font-style="normal" font-weight="normal" text-decoration="none" text-anchor="start" fill="rgb(0,0,0)" fill-opacity="1" transform="translate(0 1.390625)"><tspan dy="0.9010416666666666em" x="0">vorname</tspan></text></g><g transform="translate(5 57.21875)"><text font-family="'Arial'" font-size="12px" font-style="normal" font-weight="normal" text-decoration="none" text-anchor="start" fill="rgb(0,0,0)" fill-opacity="1" transform="translate(0 1.390625)"><tspan dy="0.9010416666666666em" x="0">nachname</tspan></text></g></g><g transform="translate(-40 -25)"><path d="M 0,10 Q 0,0 10,0 L 81,0 Q 91,0 91,10 L 91,23.21875 L 0,23.21875 Z" fill="rgb(214,61,4)" fill-opacity="1"/><path d="M 91,23.21875 L 91,117 Q 91,127 81,127 L 10,127 Q 0,127 0,117 L 0,23.21875 Z" fill="rgb(232,238,247)" fill-opacity="1"/><path d="M 0,10 Q 0,0 10,0 L 81,0 Q 91,0 91,10 L 91,117 Q 91,127 81,127 L 10,127 Q 0,127 0,117 Z M 0,23.21875 L 91,23.21875" fill="none" stroke="rgb(0,0,0)" stroke-opacity="1" stroke-width="1" stroke-linecap="butt" stroke-linejoin="miter" stroke-miterlimit="10"/><g transform="translate(0 5)"><text font-family="'Arial'" font-size="12px" font-style="normal" font-weight="normal" text-decoration="none" text-anchor="middle" fill="rgb(0,0,0)" fill-opacity="1" transform="translate(45.5 0)"><tspan dy="0.9010416666666666em" x="0">Verkauf</tspan></text></g><g transform="translate(5 25.21875)"><text font-family="'Arial'" font-size="12px" font-style="normal" font-weight="normal" text-decoration="none" text-anchor="start" fill="rgb(0,0,0)" fill-opacity="1" transform="translate(0 1.390625)"><tspan dy="0.9010416666666666em" x="0">id</tspan></text></g><g transform="translate(5 41.21875)"><text font-family="'Arial'" font-size="12px" font-style="normal" font-weight="normal" text-decoration="none" text-anchor="start" fill="rgb(0,0,0)" fill-opacity="1" transform="translate(0 1.390625)"><tspan dy="0.9010416666666666em" x="0">kunde_id</tspan></text></g><g transform="translate(5 57.21875)"><text font-family="'Arial'" font-size="12px" font-style="normal" font-weight="normal" text-decoration="none" text-anchor="start" fill="rgb(0,0,0)" fill-opacity="1" transform="translate(0 1.390625)"><tspan dy="0.9010416666666666em" x="0">artikel_id</tspan></text></g><g transform="translate(5 73.21875)"><text font-family="'Arial'" font-size="12px" font-style="normal" font-weight="normal" text-decoration="none" text-anchor="start" fill="rgb(0,0,0)" fill-opacity="1" transform="translate(0 1.390625)"><tspan dy="0.9010416666666666em" x="0">datum</tspan></text></g><g transform="translate(5 89.21875)"><text font-family="'Arial'" font-size="12px" font-style="normal" font-weight="normal" text-decoration="none" text-anchor="start" fill="rgb(0,0,0)" fill-opacity="1" transform="translate(0 1.390625)"><tspan dy="0.9010416666666666em" x="0">umsatz</tspan></text></g><g transform="translate(5 105.21875)"><text font-family="'Arial'" font-size="12px" font-style="normal" font-weight="normal" text-decoration="none" text-anchor="start" fill="rgb(0,0,0)" fill-opacity="1" transform="translate(0 1.390625)"><tspan dy="0.9010416666666666em" x="0">menge</tspan></text></g></g><g transform="translate(97 -1)"><path d="M 0,10 Q 0,0 10,0 L 81,0 Q 91,0 91,10 L 91,23.21875 L 0,23.21875 Z" fill="rgb(0,179,42)" fill-opacity="1"/><path d="M 91,23.21875 L 91,69 Q 91,79 81,79 L 10,79 Q 0,79 0,69 L 0,23.21875 Z" fill="rgb(232,238,247)" fill-opacity="1"/><path d="M 0,10 Q 0,0 10,0 L 81,0 Q 91,0 91,10 L 91,69 Q 91,79 81,79 L 10,79 Q 0,79 0,69 Z M 0,23.21875 L 91,23.21875" fill="none" stroke="rgb(0,0,0)" stroke-opacity="1" stroke-width="1" stroke-linecap="butt" stroke-linejoin="miter" stroke-miterlimit="10"/><g transform="translate(0 5)"><text font-family="'Arial'" font-size="12px" font-style="normal" font-weight="normal" text-decoration="none" text-anchor="middle" fill="rgb(0,0,0)" fill-opacity="1" transform="translate(45.5 0)"><tspan dy="0.9010416666666666em" x="0">Artikel</tspan></text></g><g transform="translate(5 25.21875)"><text font-family="'Arial'" font-size="12px" font-style="normal" font-weight="normal" text-decoration="none" text-anchor="start" fill="rgb(0,0,0)" fill-opacity="1" transform="translate(0 1.390625)"><tspan dy="0.9010416666666666em" x="0">id</tspan></text></g><g transform="translate(5 41.21875)"><text font-family="'Arial'" font-size="12px" font-style="normal" font-weight="normal" text-decoration="none" text-anchor="start" fill="rgb(0,0,0)" fill-opacity="1" transform="translate(0 1.390625)"><tspan dy="0.9010416666666666em" x="0">bezeichnung</tspan></text></g><g transform="translate(5 57.21875)"><text font-family="'Arial'" font-size="12px" font-style="normal" font-weight="normal" text-decoration="none" text-anchor="start" fill="rgb(0,0,0)" fill-opacity="1" transform="translate(0 1.390625)"><tspan dy="0.9010416666666666em" x="0">preis</tspan></text></g></g></g></g><defs/></svg>