<svg xmlns="http://www.w3.org/2000/svg" width="562px" height="139px" viewBox="0 0 562 139" xmlns:xlink="http://www.w3.org/1999/xlink" style="overflow: hidden; display: block; width: 562px; height: 139px;"><clipPath id="ygc121_6"><rect height="89" width="512" y="25" x="25"/></clipPath><g clip-path="url(#ygc121_6)"><g style="pointer-events:visiblePainted" transform="translate(207 55)" image-rendering="auto" shape-rendering="auto"><g><path fill="none" stroke="rgb(0,0,0)" d="M -86,14.5 L -40,14.5" stroke-opacity="1" stroke-width="1" stroke-linecap="butt" stroke-linejoin="miter" stroke-miterlimit="10"/><use xlink:href="#ygc121_0" transform="matrix(-0.75 0 0 -0.75 -40 14.5)"/><use xlink:href="#ygc121_1" transform="matrix(0.75 0 0 0.75 -86 14.5)"/></g><g><path fill="none" stroke="rgb(0,0,0)" d="M 51,14.5 L 97,14.5" stroke-opacity="1" stroke-width="1" stroke-linecap="butt" stroke-linejoin="miter" stroke-miterlimit="10"/><use xlink:href="#ygc121_2" transform="matrix(-0.75 0 0 -0.75 97 14.5)"/><use xlink:href="#ygc121_3" transform="matrix(0.75 0 0 0.75 51 14.5)"/></g><g><path fill="none" stroke="rgb(0,0,0)" d="M 188,14.5 L 234,14.5" stroke-opacity="1" stroke-width="1" stroke-linecap="butt" stroke-linejoin="miter" stroke-miterlimit="10"/><use xlink:href="#ygc121_4" transform="matrix(-0.75 0 0 -0.75 234 14.5)"/><use xlink:href="#ygc121_5" transform="matrix(0.75 0 0 0.75 188 14.5)"/></g><g transform="translate(-177 -25)"><path d="M 0,10 Q 0,0 10,0 L 81,0 Q 91,0 91,10 L 91,23.21875 L 0,23.21875 Z" fill="rgb(183,201,227)" fill-opacity="1"/><path d="M 91,23.21875 L 91,69 Q 91,79 81,79 L 10,79 Q 0,79 0,69 L 0,23.21875 Z" fill="rgb(232,238,247)" fill-opacity="1"/><path d="M 0,10 Q 0,0 10,0 L 81,0 Q 91,0 91,10 L 91,69 Q 91,79 81,79 L 10,79 Q 0,79 0,69 Z M 0,23.21875 L 91,23.21875" fill="none" stroke="rgb(0,0,0)" stroke-opacity="1" stroke-width="1" stroke-linecap="butt" stroke-linejoin="miter" stroke-miterlimit="10"/><g transform="translate(0 5)"><text font-family="'Arial'" font-size="12px" font-style="normal" font-weight="normal" text-decoration="none" text-anchor="middle" fill="rgb(0,0,0)" fill-opacity="1" transform="translate(45.5 0)"><tspan dy="0.9010416666666666em" x="0">Kunde</tspan></text></g><g transform="translate(5 25.21875)"><text font-family="'Arial'" font-size="12px" font-style="normal" font-weight="normal" text-decoration="none" text-anchor="start" fill="rgb(0,0,0)" fill-opacity="1" transform="translate(0 1.390625)"><tspan dy="0.9010416666666666em" x="0">id</tspan></text></g><g transform="translate(5 41.21875)"><text font-family="'Arial'" font-size="12px" font-style="normal" font-weight="normal" text-decoration="none" text-anchor="start" fill="rgb(0,0,0)" fill-opacity="1" transform="translate(0 1.390625)"><tspan dy="0.9010416666666666em" x="0">vorname</tspan></text></g><g transform="translate(5 57.21875)"><text font-family="'Arial'" font-size="12px" font-style="normal" font-weight="normal" text-decoration="none" text-anchor="start" fill="rgb(0,0,0)" fill-opacity="1" transform="translate(0 1.390625)"><tspan dy="0.9010416666666666em" x="0">nachname</tspan></text></g></g><g transform="translate(-40 -25)"><path d="M 0,10 Q 0,0 10,0 L 81,0 Q 91,0 91,10 L 91,23.21875 L 0,23.21875 Z" fill="rgb(183,201,227)" fill-opacity="1"/><path d="M 91,23.21875 L 91,69 Q 91,79 81,79 L 10,79 Q 0,79 0,69 L 0,23.21875 Z" fill="rgb(232,238,247)" fill-opacity="1"/><path d="M 0,10 Q 0,0 10,0 L 81,0 Q 91,0 91,10 L 91,69 Q 91,79 81,79 L 10,79 Q 0,79 0,69 Z M 0,23.21875 L 91,23.21875" fill="none" stroke="rgb(0,0,0)" stroke-opacity="1" stroke-width="1" stroke-linecap="butt" stroke-linejoin="miter" stroke-miterlimit="10"/><g transform="translate(0 5)"><text font-family="'Arial'" font-size="12px" font-style="normal" font-weight="normal" text-decoration="none" text-anchor="middle" fill="rgb(0,0,0)" fill-opacity="1" transform="translate(45.5 0)"><tspan dy="0.9010416666666666em" x="0">Bestellung</tspan></text></g><g transform="translate(5 25.21875)"><text font-family="'Arial'" font-size="12px" font-style="normal" font-weight="normal" text-decoration="none" text-anchor="start" fill="rgb(0,0,0)" fill-opacity="1" transform="translate(0 1.390625)"><tspan dy="0.9010416666666666em" x="0">id</tspan></text></g><g transform="translate(5 41.21875)"><text font-family="'Arial'" font-size="12px" font-style="normal" font-weight="normal" text-decoration="none" text-anchor="start" fill="rgb(0,0,0)" fill-opacity="1" transform="translate(0 1.390625)"><tspan dy="0.9010416666666666em" x="0">kunde_id</tspan></text></g><g transform="translate(5 57.21875)"><text font-family="'Arial'" font-size="12px" font-style="normal" font-weight="normal" text-decoration="none" text-anchor="start" fill="rgb(0,0,0)" fill-opacity="1" transform="translate(0 1.390625)"><tspan dy="0.9010416666666666em" x="0">datum</tspan></text></g></g><g transform="translate(97 -25)"><path d="M 0,10 Q 0,0 10,0 L 81,0 Q 91,0 91,10 L 91,23.21875 L 0,23.21875 Z" fill="rgb(183,201,227)" fill-opacity="1"/><path d="M 91,23.21875 L 91,69 Q 91,79 81,79 L 10,79 Q 0,79 0,69 L 0,23.21875 Z" fill="rgb(232,238,247)" fill-opacity="1"/><path d="M 0,10 Q 0,0 10,0 L 81,0 Q 91,0 91,10 L 91,69 Q 91,79 81,79 L 10,79 Q 0,79 0,69 Z M 0,23.21875 L 91,23.21875" fill="none" stroke="rgb(0,0,0)" stroke-opacity="1" stroke-width="1" stroke-linecap="butt" stroke-linejoin="miter" stroke-miterlimit="10"/><g transform="translate(0 5)"><text font-family="'Arial'" font-size="12px" font-style="normal" font-weight="normal" text-decoration="none" text-anchor="middle" fill="rgb(0,0,0)" fill-opacity="1" transform="translate(45.5 0)"><tspan dy="0.9010416666666666em" x="0">Position</tspan></text></g><g transform="translate(5 25.21875)"><text font-family="'Arial'" font-size="12px" font-style="normal" font-weight="normal" text-decoration="none" text-anchor="start" fill="rgb(0,0,0)" fill-opacity="1" transform="translate(0 1.390625)"><tspan dy="0.9010416666666666em" x="0">kunde_id</tspan></text></g><g transform="translate(5 41.21875)"><text font-family="'Arial'" font-size="12px" font-style="normal" font-weight="normal" text-decoration="none" text-anchor="start" fill="rgb(0,0,0)" fill-opacity="1" transform="translate(0 1.390625)"><tspan dy="0.9010416666666666em" x="0">artikel_id</tspan></text></g><g transform="translate(5 57.21875)"><text font-family="'Arial'" font-size="12px" font-style="normal" font-weight="normal" text-decoration="none" text-anchor="start" fill="rgb(0,0,0)" fill-opacity="1" transform="translate(0 1.390625)"><tspan dy="0.9010416666666666em" x="0">menge</tspan></text></g></g><g transform="translate(234 -25)"><path d="M 0,10 Q 0,0 10,0 L 81,0 Q 91,0 91,10 L 91,23.21875 L 0,23.21875 Z" fill="rgb(183,201,227)" fill-opacity="1"/><path d="M 91,23.21875 L 91,69 Q 91,79 81,79 L 10,79 Q 0,79 0,69 L 0,23.21875 Z" fill="rgb(232,238,247)" fill-opacity="1"/><path d="M 0,10 Q 0,0 10,0 L 81,0 Q 91,0 91,10 L 91,69 Q 91,79 81,79 L 10,79 Q 0,79 0,69 Z M 0,23.21875 L 91,23.21875" fill="none" stroke="rgb(0,0,0)" stroke-opacity="1" stroke-width="1" stroke-linecap="butt" stroke-linejoin="miter" stroke-miterlimit="10"/><g transform="translate(0 5)"><text font-family="'Arial'" font-size="12px" font-style="normal" font-weight="normal" text-decoration="none" text-anchor="middle" fill="rgb(0,0,0)" fill-opacity="1" transform="translate(45.5 0)"><tspan dy="0.9010416666666666em" x="0">Artikel</tspan></text></g><g transform="translate(5 25.21875)"><text font-family="'Arial'" font-size="12px" font-style="normal" font-weight="normal" text-decoration="none" text-anchor="start" fill="rgb(0,0,0)" fill-opacity="1" transform="translate(0 1.390625)"><tspan dy="0.9010416666666666em" x="0">id</tspan></text></g><g transform="translate(5 41.21875)"><text font-family="'Arial'" font-size="12px" font-style="normal" font-weight="normal" text-decoration="none" text-anchor="start" fill="rgb(0,0,0)" fill-opacity="1" transform="translate(0 1.390625)"><tspan dy="0.9010416666666666em" x="0">bezeichnung</tspan></text></g><g transform="translate(5 57.21875)"><text font-family="'Arial'" font-size="12px" font-style="normal" font-weight="normal" text-decoration="none" text-anchor="start" fill="rgb(0,0,0)" fill-opacity="1" transform="translate(0 1.390625)"><tspan dy="0.9010416666666666em" x="0">preis</tspan></text></g></g></g></g><defs><g id="ygc121_0"><circle fill="#fff" stroke="rgb(255,255,255)" stroke-opacity="1" stroke-width="1" stroke-linecap="butt" stroke-linejoin="miter" stroke-miterlimit="10" cx="15" r="5" cy="0"/><path d="M 10,0 L -2,8 M 10,0 L -2,0 M 10,0 L -2,-8" stroke="rgb(255,255,255)" stroke-opacity="1" stroke-width="1" stroke-linecap="butt" stroke-linejoin="miter" stroke-miterlimit="10"/></g><path d="M 16,-8 L 16,8 M 6,-8 L 6,8 Z" stroke="rgb(255,255,255)" stroke-opacity="1" stroke-width="1" stroke-linecap="butt" stroke-linejoin="miter" stroke-miterlimit="10" id="ygc121_1"/><path d="M 15,8 L 15,-8 M 10,0 L -2,8 M 10,0 L -2,0 M 10,0 L -2,-8" stroke="rgb(255,255,255)" stroke-opacity="1" stroke-width="1" stroke-linecap="butt" stroke-linejoin="miter" stroke-miterlimit="10" id="ygc121_2"/><path d="M 16,-8 L 16,8 M 6,-8 L 6,8 Z" stroke="rgb(255,255,255)" stroke-opacity="1" stroke-width="1" stroke-linecap="butt" stroke-linejoin="miter" stroke-miterlimit="10" id="ygc121_3"/><path d="M 16,-8 L 16,8 M 6,-8 L 6,8 Z" stroke="rgb(255,255,255)" stroke-opacity="1" stroke-width="1" stroke-linecap="butt" stroke-linejoin="miter" stroke-miterlimit="10" id="ygc121_4"/><g id="ygc121_5"><circle fill="#fff" stroke="rgb(255,255,255)" stroke-opacity="1" stroke-width="1" stroke-linecap="butt" stroke-linejoin="miter" stroke-miterlimit="10" cx="15" r="5" cy="0"/><path d="M 10,0 L -2,8 M 10,0 L -2,0 M 10,0 L -2,-8" stroke="rgb(255,255,255)" stroke-opacity="1" stroke-width="1" stroke-linecap="butt" stroke-linejoin="miter" stroke-miterlimit="10"/></g></defs></svg>